# xmcd
#
# Track frame offsets: 
#        150
#        16272
#        27452
#        49625
#        68189
#        90447
#        110150
#        124843
#        143922
#        162690
#        180150
#        196263
#
# Disc length: 2843 seconds
#
# Revision: 4
# Processed by: cddbd v1.5.2PL0 Copyright (c) Steve Scherf et al.
# Submitted via: ExactAudioCopy v0.95b4
#
DISCID=a10b190c
DTITLE=Sabaton - Coat Of Arms (Limited Edition)
DYEAR=2010
DGENRE=Power Metal
TTITLE0=Coat Of Arms
TTITLE1=Midway
TTITLE2=Uprising
TTITLE3=Screaming Eagles
TTITLE4=The Final Solution
TTITLE5=Aces In Exile
TTITLE6=Saboteurs
TTITLE7=Wehrmacht
TTITLE8=White Death
TTITLE9=Metal Ripper
TTITLE10=Coat Of Arms (Instrumental) (Bonus Track)
TTITLE11=Metal Ripper (Instrumental) (Bonus Track)
EXTD=
EXTT0=
EXTT1=
EXTT2=
EXTT3=
EXTT4=
EXTT5=
EXTT6=
EXTT7=
EXTT8=
EXTT9=
EXTT10=
EXTT11=
PLAYORDER=
